<svg width="1024" height="1024" viewBox="0 0 680 680" xmlns="http://www.w3.org/2000/svg">
<style>
  .bg { fill: #0d1117; }
  .wave { fill: none; stroke: #00d4ff; stroke-width: 3; stroke-linecap: round; }
  .wave2 { fill: none; stroke: #00d4ff; stroke-width: 2; stroke-linecap: round; opacity: 0.5; }
  .wave3 { fill: none; stroke: #00d4ff; stroke-width: 1.5; stroke-linecap: round; opacity: 0.25; }
  .tc { fill: #00d4ff; font-family: 'Courier New', monospace; font-size: 64px; font-weight: 700; letter-spacing: 4px; }
  .label { fill: #ffffff; font-family: 'Courier New', monospace; font-size: 36px; font-weight: 700; letter-spacing: 8px; opacity: 0.9; }
  .dot { fill: #00d4ff; }
  .cast-ring { fill: none; stroke: #00d4ff; stroke-width: 2.5; stroke-linecap: round; }
</style>

<rect width="680" height="680" rx="120" fill="#0d1117"/>
<rect x="40" y="40" width="600" height="600" rx="88" fill="#111820"/>
<line x1="80" y1="340" x2="600" y2="340" stroke="#1a2a3a" stroke-width="1"/>

<polyline class="wave" points="80,340 110,340 120,260 130,420 140,200 150,480 160,240 170,400 180,300 190,380 200,340 210,280 220,400 230,220 240,460 250,260 260,380 270,300 280,360 300,340 320,340 330,300 340,380 350,260 360,420 370,280 380,360 390,300 400,380 410,340 420,260 430,420 440,200 450,460 460,240 470,400 480,300 490,360 510,340 600,340" fill="none"/>
<polyline class="wave2" points="80,340 100,340 115,290 130,390 145,250 160,430 175,270 190,370 210,340 230,340 245,295 260,385 275,255 290,410 305,275 320,370 340,340 355,340 370,290 385,390 400,250 415,430 430,275 445,360 465,340 480,340 495,290 510,385 525,255 540,415 555,270 570,360 590,340 600,340" fill="none"/>
<polyline class="wave3" points="80,340 105,340 120,305 135,375 150,270 165,410 180,285 200,340 215,340 230,305 245,375 260,270 280,340 295,340 315,340 330,340 345,310 360,370 375,275 390,405 405,285 425,340 440,340 455,310 470,370 490,340 505,340 525,340 540,340 555,310 570,375 590,340 600,340" fill="none"/>

<circle cx="340" cy="530" r="8" class="dot"/>
<path class="cast-ring" d="M 300,530 A 40,40 0 0,1 380,530"/>
<path class="cast-ring" d="M 272,530 A 68,68 0 0,1 408,530" stroke-opacity="0.6"/>
<path class="cast-ring" d="M 245,530 A 95,95 0 0,1 435,530" stroke-opacity="0.35"/>

<text x="340" y="185" text-anchor="middle" class="tc">00:00:00:00</text>
<text x="340" y="470" text-anchor="middle" class="label">LTCast</text>
</svg>
